<svg xmlns="http://www.w3.org/2000/svg" viewBox="0 0 512 512" width="512" height="512">
  <defs>
    <linearGradient id="bg" x1="0%" y1="0%" x2="100%" y2="100%">
      <stop offset="0%" stop-color="#0f172a"/>
      <stop offset="100%" stop-color="#1e293b"/>
    </linearGradient>
    <linearGradient id="accent" x1="0%" y1="0%" x2="100%" y2="100%">
      <stop offset="0%" stop-color="#38bdf8"/>
      <stop offset="100%" stop-color="#818cf8"/>
    </linearGradient>
    <linearGradient id="edge" x1="0%" y1="0%" x2="100%" y2="100%">
      <stop offset="0%" stop-color="#38bdf8" stop-opacity="0.45"/>
      <stop offset="100%" stop-color="#818cf8" stop-opacity="0.45"/>
    </linearGradient>
    <filter id="glow">
      <feGaussianBlur stdDeviation="3" result="blur"/>
      <feMerge>
        <feMergeNode in="blur"/>
        <feMergeNode in="SourceGraphic"/>
      </feMerge>
    </filter>
    <filter id="nodeGlow">
      <feGaussianBlur stdDeviation="5" result="blur"/>
      <feMerge>
        <feMergeNode in="blur"/>
        <feMergeNode in="SourceGraphic"/>
      </feMerge>
    </filter>
  </defs>

  <!-- Background -->
  <rect width="512" height="512" rx="64" fill="url(#bg)"/>

  <!-- Graph edges — hexagonal layout -->
  <g stroke="url(#edge)" stroke-width="2.5" fill="none" filter="url(#glow)">
    <!-- Center to ring -->
    <line x1="256" y1="210" x2="256" y2="110"/>
    <line x1="256" y1="210" x2="343" y2="160"/>
    <line x1="256" y1="210" x2="343" y2="260"/>
    <line x1="256" y1="210" x2="256" y2="310"/>
    <line x1="256" y1="210" x2="169" y2="260"/>
    <line x1="256" y1="210" x2="169" y2="160"/>
    <!-- Ring connections -->
    <line x1="256" y1="110" x2="343" y2="160"/>
    <line x1="343" y1="160" x2="343" y2="260"/>
    <line x1="343" y1="260" x2="256" y2="310"/>
    <line x1="256" y1="310" x2="169" y2="260"/>
    <line x1="169" y1="260" x2="169" y2="160"/>
    <line x1="169" y1="160" x2="256" y2="110"/>
  </g>

  <!-- Graph nodes -->
  <g filter="url(#nodeGlow)">
    <!-- Ring nodes -->
    <circle cx="256" cy="110" r="12" fill="#38bdf8"/>
    <circle cx="343" cy="160" r="12" fill="#818cf8"/>
    <circle cx="343" cy="260" r="12" fill="#38bdf8"/>
    <circle cx="256" cy="310" r="12" fill="#818cf8"/>
    <circle cx="169" cy="260" r="12" fill="#38bdf8"/>
    <circle cx="169" cy="160" r="12" fill="#818cf8"/>
    <!-- Center node -->
    <circle cx="256" cy="210" r="26" fill="url(#accent)"/>
    <circle cx="256" cy="210" r="26" fill="none" stroke="white" stroke-opacity="0.15" stroke-width="1.5"/>
  </g>

  <!-- Code symbol — white for contrast -->
  <text x="256" y="217" text-anchor="middle" font-family="'SF Mono', 'Fira Code', monospace" font-size="22" font-weight="700" fill="white" opacity="0.9">&lt;/&gt;</text>

  <!-- Text -->
  <text x="256" y="410" text-anchor="middle" font-family="system-ui, -apple-system, 'Segoe UI', sans-serif" font-size="52" font-weight="700" letter-spacing="2" fill="white">ArchGraph</text>
  <text x="256" y="442" text-anchor="middle" font-family="system-ui, -apple-system, 'Segoe UI', sans-serif" font-size="15" font-weight="400" letter-spacing="2" fill="#94a3b8">CODE KNOWLEDGE GRAPH</text>
</svg>
